<svg xmlns="http://www.w3.org/2000/svg" width="28" height="26" viewBox="0 0 28 26"><g><g><path fill="#247cb4" d="M.706 26h5.448V8.338H.706zM6.625 3.062C6.585 1.319 5.347 0 3.334 0 1.319 0 0 1.322 0 3.067c0 1.711 1.28 3.061 3.256 3.061h.04c2.051 0 3.329-1.355 3.329-3.066zM28 16.179c0-5.47-3.047-8.011-6.926-8.011-3.126 0-5.085 1.73-5.447 2.942V8.338H9.496c.079 1.471 0 17.662 0 17.662h6.13v-9.558c0-.531-.024-1.062.134-1.443.421-1.063 1.327-2.165 2.955-2.165 2.129 0 3.097 1.634 3.097 4.026V26H28z"/></g></g></svg>