<svg xmlns="http://www.w3.org/2000/svg" width="15" height="15" viewBox="0 0 15 15"><g><g><path fill="#6d1b11" d="M4.52 5.768H1.238c-.32 0-.518.182-.518.473v2.513c0 .295.2.477.52.477h3.28v1.907a.44.44 0 0 0 .343.454.488.488 0 0 0 .484-.128 34499.93 34499.93 0 0 1 4.046-3.69.392.392 0 0 0 .105-.341c-.018-.114-.089-.198-.175-.276a670120.507 670120.507 0 0 0-3.974-3.62.506.506 0 0 0-.324-.147c-.279-.014-.505.18-.505.44V5.767zm1.52 8.265c0 .534.441.967.987.967 4.222 0 7.658-3.364 7.658-7.5S11.249 0 7.027 0a.977.977 0 0 0-.988.967c0 .534.442.967.988.967 3.134 0 5.683 2.496 5.683 5.566s-2.55 5.566-5.683 5.566a.977.977 0 0 0-.988.967z"/></g></g></svg>