<svg xmlns="http://www.w3.org/2000/svg" width="21" height="27" viewBox="0 0 21 27"><g><g><path fill="#e15b57" d="M12.254 19.584c-1.643-.128-2.333-.943-3.622-1.725-.708 3.717-1.574 7.28-4.138 9.141-.792-5.618 1.161-9.838 2.07-14.317-1.548-2.604.186-7.846 3.448-6.555 4.015 1.589-3.476 9.685 1.553 10.695 5.25 1.056 7.394-9.112 4.137-12.42C10.998-.371 2.01 4.296 3.114 11.13c.27 1.672 1.996 2.18.69 4.485C.791 14.948-.107 12.573.01 9.406.196 4.222 4.666.593 9.15.091c5.67-.635 10.992 2.082 11.727 7.417.826 6.023-2.56 12.543-8.623 12.076"/></g></g></svg>