<svg xmlns="http://www.w3.org/2000/svg" width="26" height="22" viewBox="0 0 26 22"><g><g><path fill="#68c6e1" d="M22.937 3.478A5.53 5.53 0 0 0 25.283.407a10.413 10.413 0 0 1-3.39 1.346A5.225 5.225 0 0 0 18 0c-2.944 0-5.332 2.487-5.332 5.554 0 .435.046.858.137 1.264-4.433-.232-8.363-2.44-10.995-5.804a5.722 5.722 0 0 0-.722 2.795c0 1.926.942 3.626 2.373 4.622a5.178 5.178 0 0 1-2.417-.692v.068c0 2.692 1.839 4.937 4.28 5.445-.447.13-.918.196-1.405.196-.343 0-.68-.033-1.004-.099.679 2.206 2.648 3.812 4.983 3.855A10.434 10.434 0 0 1 0 19.507 14.691 14.691 0 0 0 8.177 22c9.813 0 15.177-8.462 15.177-15.801 0-.242-.005-.483-.014-.72A11.05 11.05 0 0 0 26 2.604c-.955.442-1.984.74-3.063.874z"/></g></g></svg>